<svg width="157" height="34" viewBox="0 0 157 34" fill="none" xmlns="http://www.w3.org/2000/svg">
<path d="M34.6738 24.7546L38.508 21.1712L34.9786 26.8115L36.0588 34H62L58.8021 26.8115H44.5882L43.9786 22.8005H58.7914L56.492 17.669H43.1979L42.7647 14.7839H45.8021L55.9626 14.7676L61.9465 7H32L34.6738 24.7546Z" fill="white"/>
<path d="M89.8342 28.6411L85.9872 29.6696L89.4956 27.4882L85.7929 13.9611L83.75 7.08119L68.0176 7L65.4696 15.1087L62 25.7668L66.3356 34L72.1311 14.7298L79.1147 14.8109L80.8078 21.7233L71.4095 21.7883L72.5641 26.8765L81.6239 26.817L82.9673 34H91L89.8342 28.6411Z" fill="white"/>
<path d="M95.8528 7.00541L92.7592 22.7897L114.36 22.8005L109.469 30.4437L110.52 26.8115H97.0946L91 34L100.003 33.935L118.205 33.9405L120.825 26.4814L123.875 17.6744H100.003L105.384 11.5144L103.788 14.7676H117.905L124 7H106.876L95.8528 7.00541Z" fill="white"/>
<path d="M144.976 7.00541H124L130.158 14.7676H136.646V34H146.905V23.7045L141.297 26.0213L146.905 21.9182V14.7676H154.542L157 7H144.976V7.00541Z" fill="white"/>
<path d="M10 17H1V34H3.1688L8.04075 22.3385" fill="white"/>
<path d="M3.96911 0C3.96911 0 -1.65997 4.5391 0.489116 14H11C11 14 3.54911 8.24374 3.96911 0Z" fill="white"/>
<path d="M29.1434 17.6735V7H8.04764C8.04764 7 9.50944 11.0857 14.185 14.766H16.5227H18.2077L16.3163 17.6681H12.8124L10.7258 22.7968L20.6794 22.8347L20.6515 26.8122H9.40343L6 34H23.8206L22.6545 29.4333L25.4609 34H29.1434L32 33.9514V22.813L29.1434 17.6681V17.6735Z" fill="white"/>
</svg>
